# xmcd
#
# Track frame offsets:
#  182
#  35702
#  54027
#  96985
#  114782
#  161955
#  173517
#  200117
#  233255
#
# Disc length: 3383 seconds
#
# Revision: 0
# Processed by: cddbd v1.5.2PL0 Copyright (c) Steve Scherf et al.
# Submitted via: AltoMP3_Maker 3.0
#
DISCID=690d3509
DTITLE=U.P. Wilson - Texas Blues Party Vol.1 - U.P. Wilson Live At Schooners
DYEAR=1900
DGENRE=
TTITLE0=You're the One I Choose
TTITLE1=Cross Roads
TTITLE2=My Baby's Got a Black Cat Bone
TTITLE3=That's Your Woman
TTITLE4=My Baby's Mind
TTITLE5=One Hand Boogie
TTITLE6=Hold Me, Baby
TTITLE7=One Hand Blues
TTITLE8=The Thrill is Gone
EXTD=
EXTT0=
EXTT1=
EXTT2=
EXTT3=
EXTT4=
EXTT5=
EXTT6=
EXTT7=
EXTT8=
PLAYORDER=
